<?xml version="1.0" encoding="UTF-8" standalone="no"?>
<svg
   xmlns:dc="http://purl.org/dc/elements/1.1/"
   xmlns:cc="http://creativecommons.org/ns#"
   xmlns:rdf="http://www.w3.org/1999/02/22-rdf-syntax-ns#"
   xmlns:svg="http://www.w3.org/2000/svg"
   xmlns="http://www.w3.org/2000/svg"
   xmlns:sodipodi="http://sodipodi.sourceforge.net/DTD/sodipodi-0.dtd"
   xmlns:inkscape="http://www.inkscape.org/namespaces/inkscape"
   inkscape:version="1.0 (6e3e5246a0, 2020-05-07)"
   sodipodi:docname="bold-solid.svg"
   id="svg4"
   version="1.1"
   viewBox="0 0 384 512"
   role="img"
   class="svg-inline--fa fa-bold fa-w-12"
   data-icon="bold"
   data-prefix="fas"
   focusable="false"
   aria-hidden="true">
  <metadata
     id="metadata10">
    <rdf:RDF>
      <cc:Work
         rdf:about="">
        <dc:format>image/svg+xml</dc:format>
        <dc:type
           rdf:resource="http://purl.org/dc/dcmitype/StillImage" />
      </cc:Work>
    </rdf:RDF>
  </metadata>
  <defs
     id="defs8" />
  <sodipodi:namedview
     inkscape:current-layer="svg4"
     inkscape:window-maximized="1"
     inkscape:window-y="27"
     inkscape:window-x="0"
     inkscape:cy="219.29749"
     inkscape:cx="-5.2759857"
     inkscape:zoom="1.0898438"
     showgrid="false"
     id="namedview6"
     inkscape:window-height="704"
     inkscape:window-width="1366"
     inkscape:pageshadow="2"
     inkscape:pageopacity="0"
     guidetolerance="10"
     gridtolerance="10"
     objecttolerance="10"
     borderopacity="1"
     bordercolor="#666666"
     pagecolor="#ffffff" />
  <path
     id="path2"
     d="M333.49 238a122 122 0 0 0 27-65.21C367.87 96.49 308 32 233.42 32H34a16 16 0 0 0-16 16v48a16 16 0 0 0 16 16h31.87v288H34a16 16 0 0 0-16 16v48a16 16 0 0 0 16 16h209.32c70.8 0 134.14-51.75 141-122.4 4.74-48.45-16.39-92.06-50.83-119.6zM145.66 112h87.76a48 48 0 0 1 0 96h-87.76zm87.76 288h-87.76V288h87.76a56 56 0 0 1 0 112z"
     fill="currentColor" />
  <path
     id="path12"
     d="m 26.852805,477.34047 c -2.782173,-1.47125 -4.706467,-3.38807 -6.159253,-6.13533 -2.068318,-3.91125 -2.112907,-4.57038 -2.112907,-31.23381 0,-26.66344 0.04459,-27.32257 2.112907,-31.23382 1.444171,-2.73097 3.377508,-4.6643 6.108476,-6.10847 3.772538,-1.99497 4.986257,-2.11291 21.743724,-2.11291 H 66.293907 V 256 111.48387 H 48.545752 c -16.757467,0 -17.971186,-0.11794 -21.743724,-2.11291 -2.730968,-1.44417 -4.664305,-3.3775 -6.108476,-6.10847 -2.069779,-3.914014 -2.112907,-4.557531 -2.112907,-31.52691 0,-27.411534 0.0096,-27.547704 2.203933,-31.292067 1.231429,-2.101275 3.81707,-4.667361 5.859697,-5.815382 l 3.655765,-2.054654 106.31234,0.0054 c 87.96596,0.0045 107.81662,0.233865 115.0292,1.329251 53.56635,8.135212 95.10031,47.774615 106.57985,101.718272 2.59578,12.19785 2.81132,34.67988 0.44828,46.75744 -3.85404,19.69806 -11.56698,36.59383 -24.7712,54.26321 -0.51349,0.68713 2.96723,4.82466 10.12462,12.03515 20.9129,21.06804 32.73653,43.38189 38.51989,72.6957 2.17999,11.04963 2.16861,34.38126 -0.0223,45.64718 -10.84411,55.76254 -51.94872,96.36324 -111.15154,109.78895 l -9.17563,2.0808 -115.6472,0.29269 -115.647199,0.2927 z M 252.10036,397.26724 c 13.78639,-5.18101 24.5249,-14.43383 30.91555,-26.63834 5.09103,-9.72258 6.58899,-15.88868 6.55961,-27.00166 -0.0218,-8.26734 -0.41178,-10.74683 -2.74795,-17.47422 -6.43536,-18.53163 -20.83177,-31.93476 -39.40312,-36.68452 -6.61031,-1.69062 -10.28773,-1.81259 -54.65366,-1.81259 H 145.2043 v 56.48074 56.48074 l 49.77778,-0.29578 49.77778,-0.29576 z m -5.0466,-190.72686 c 17.19257,-5.68852 29.50852,-18.76016 33.45669,-35.50954 1.88499,-7.99674 1.75703,-14.77382 -0.44126,-23.36902 -4.33592,-16.95332 -17.37267,-29.99007 -34.32599,-34.326 -6.79676,-1.73832 -10.10326,-1.85195 -53.88997,-1.85195 H 145.2043 v 48.68267 48.68266 l 48.40143,-0.31952 c 43.81273,-0.28923 48.87988,-0.47783 53.44803,-1.9893 z"
     style="fill:#a0a0a0;stroke:none;stroke-width:0.917563" />
  <path
     id="path14"
     d="m 28.854199,477.70921 c -3.471934,-1.76598 -6.540204,-4.70782 -8.161498,-7.82521 -1.142613,-2.19699 -1.383831,-7.41114 -1.383831,-29.91267 0,-29.27632 0.129117,-30.18245 4.919361,-34.52334 4.014888,-3.63826 5.975545,-4.01396 24.118704,-4.6216 l 17.946972,-0.60105 V 255.99869 111.77204 l -17.975992,-0.62249 c -18.854711,-0.65292 -20.998315,-1.11208 -24.805404,-5.31326 -4.091939,-4.51553 -4.184685,-5.2629 -4.203666,-33.874174 -0.02062,-31.086589 -0.11385,-30.636931 7.573442,-36.528927 l 4.085455,-3.131334 107.742028,0.64307 c 117.16922,0.699337 114.52187,0.57847 132.20062,6.035692 32.09973,9.908803 59.88917,33.634275 75.24982,64.245193 5.18797,10.33865 7.87481,17.64162 10.7877,29.32156 2.18872,8.7762 2.41404,11.33681 2.42582,27.56733 0.0111,15.28849 -0.27412,19.03616 -1.95968,25.75102 -4.13723,16.48163 -9.99588,29.7714 -19.27305,43.71905 l -5.01157,7.53461 1.84815,2.55858 c 1.01647,1.40723 3.77112,4.41666 6.12143,6.68763 20.64838,19.95137 34.43491,44.67608 40.51359,72.65686 2.36699,10.89549 2.3503,39.30482 -0.0295,50.27191 -5.66675,26.11438 -17.96557,48.69497 -36.77012,67.50982 -19.16546,19.17597 -43.10505,32.0726 -73.10429,39.38241 l -8.83614,2.15307 -115.77203,0.31405 c -96.737098,0.2624 -116.178824,0.10711 -118.246281,-0.9445 z M 251.1828,398.03227 c 16.73147,-6.34315 27.30283,-16.10624 34.40866,-31.77782 13.92462,-30.71009 -4.84755,-68.81186 -38.0423,-77.21426 -4.53315,-1.14744 -13.75575,-1.38428 -53.90681,-1.38428 H 145.2043 l -1.4e-4,56.6595 -1.3e-4,56.6595 49.77791,-0.25381 49.77792,-0.25379 z M 240.81537,207.90033 c 9.6432,-1.07342 19.18921,-5.82119 26.75339,-13.306 26.83896,-26.55735 14.5076,-72.21484 -22.07778,-81.74413 -4.319,-1.12495 -13.64072,-1.36633 -52.7662,-1.36633 H 145.2043 l -1.1e-4,48.86022 -1.1e-4,48.86021 44.27251,-0.25871 c 24.34989,-0.14229 47.45234,-0.61266 51.33878,-1.04526 z"
     style="fill:#161616;stroke:none;stroke-width:0.917563;fill-opacity:1" />
</svg>
