<?xml version="1.0" encoding="UTF-8" standalone="no"?>
<svg
   xmlns:dc="http://purl.org/dc/elements/1.1/"
   xmlns:cc="http://creativecommons.org/ns#"
   xmlns:rdf="http://www.w3.org/1999/02/22-rdf-syntax-ns#"
   xmlns:svg="http://www.w3.org/2000/svg"
   xmlns="http://www.w3.org/2000/svg"
   xmlns:sodipodi="http://sodipodi.sourceforge.net/DTD/sodipodi-0.dtd"
   xmlns:inkscape="http://www.inkscape.org/namespaces/inkscape"
   inkscape:version="1.0 (6e3e5246a0, 2020-05-07)"
   sodipodi:docname="paragraph-solid.svg"
   id="svg4"
   version="1.1"
   viewBox="0 0 448 512"
   role="img"
   class="svg-inline--fa fa-paragraph fa-w-14"
   data-icon="paragraph"
   data-prefix="fas"
   focusable="false"
   aria-hidden="true">
  <metadata
     id="metadata10">
    <rdf:RDF>
      <cc:Work
         rdf:about="">
        <dc:format>image/svg+xml</dc:format>
        <dc:type
           rdf:resource="http://purl.org/dc/dcmitype/StillImage" />
      </cc:Work>
    </rdf:RDF>
  </metadata>
  <defs
     id="defs8" />
  <sodipodi:namedview
     inkscape:current-layer="svg4"
     inkscape:window-maximized="1"
     inkscape:window-y="27"
     inkscape:window-x="0"
     inkscape:cy="256"
     inkscape:cx="26.724014"
     inkscape:zoom="1.0898438"
     showgrid="false"
     id="namedview6"
     inkscape:window-height="704"
     inkscape:window-width="1366"
     inkscape:pageshadow="2"
     inkscape:pageopacity="0"
     guidetolerance="10"
     gridtolerance="10"
     objecttolerance="10"
     borderopacity="1"
     bordercolor="#666666"
     pagecolor="#ffffff" />
  <path
     style="fill:#161616;fill-opacity:1"
     id="path2"
     d="M448 48v32a16 16 0 0 1-16 16h-48v368a16 16 0 0 1-16 16h-32a16 16 0 0 1-16-16V96h-32v368a16 16 0 0 1-16 16h-32a16 16 0 0 1-16-16V352h-32a160 160 0 0 1 0-320h240a16 16 0 0 1 16 16z"
     fill="currentColor" />
</svg>
